<?xml version="1.0" encoding="utf-8"?>
<!-- Generator: Adobe Illustrator 22.1.0, SVG Export Plug-In . SVG Version: 6.00 Build 0)  -->
<svg version="1.1" id="Layer_1" xmlns="http://www.w3.org/2000/svg" xmlns:xlink="http://www.w3.org/1999/xlink" x="0px" y="0px"
	 viewBox="0 0 760 480" style="enable-background:new 0 0 760 480;" xml:space="preserve">
<style type="text/css">
	.st0{fill:#2E3192;stroke:#F7931E;stroke-width:2;stroke-miterlimit:10;}
</style>
<g>
	<path class="st0" d="M77.4,106.2l9.7,68.7c3.7,26,16.8,35.4,32.3,33.2c17.2-2.4,26.7-15.3,23.1-41l-9.7-68.7l15.2-2.1l9.5,67.7
		c5,35.7-11.7,53-36.9,56.5c-23.8,3.3-43.6-7.8-48.7-43.8l-9.6-68.4L77.4,106.2z"/>
	<path class="st0" d="M190.5,175.4c-1.2-8.6-2.4-15.7-3.9-22.5l13.4-1.9l2.8,13.7l0.3,0c3-8.5,11.6-17.6,25.4-19.6
		c11.5-1.6,30.4,2.8,34.5,31.4l7,49.8l-15.2,2.1l-6.8-48.1c-1.9-13.4-8.5-23.9-22.8-21.9c-10,1.4-16.8,9.6-18.2,18.4
		c-0.4,2-0.4,4.6,0,7.2l7,50.1l-15.2,2.1L190.5,175.4z"/>
	<path class="st0" d="M287.2,86.2c0.9,5.1-2.3,9.8-8.3,10.7c-5.3,0.8-9.7-2.9-10.4-8c-0.8-5.3,2.6-10,8.1-10.8
		C282.3,77.3,286.5,80.9,287.2,86.2z M285.3,195.4L273.6,112l15.2-2.1l11.7,83.4L285.3,195.4z"/>
	<path class="st0" d="M353.5,132.6l1.6,11.2l-42.6,6l-1.6-11.2L353.5,132.6z"/>
	<path class="st0" d="M359.3,43.8l15-2.1l14.6,103.6l49.6-7l1.8,12.6l-64.6,9.1L359.3,43.8z"/>
	<path class="st0" d="M452.6,117.4l25.2,46.7c2.7,5.2,5.7,11.5,7.7,16.3l0.3,0c0.8-5.2,1.7-11.8,2.9-18.2l9.7-51.3l16-2.3
		l-14.4,62.6c-6.8,30.1-12.2,45.8-21.3,56.2c-6.5,7.6-13.5,11.2-17.2,12.4l-5.6-12.2c3.6-1.7,8.3-4.9,12.2-9.3
		c3.7-3.9,8-10.4,10.4-18.7c0.5-1.6,0.8-2.9,0.7-3.8s-0.6-2-1.6-3.8l-41.6-72.5L452.6,117.4z"/>
	<path class="st0" d="M537.9,159.9l-10.1-71.9l-11.7,1.6l-1.6-11.5l11.7-1.6l-0.6-4c-1.6-11.7-0.6-22.8,5.6-30.5
		c4.9-6.3,12.2-9.6,19.2-10.6c5.3-0.8,10.2-0.2,13.3,0.6l-0.4,12c-2.4-0.7-5.6-1.1-9.9-0.5c-12.9,1.8-14.6,13.6-12.8,26.4l0.6,4.5
		l20.2-2.8l1.6,11.5L542.8,86l10.1,71.8L537.9,159.9z"/>
	<path class="st0" d="M587.4,124.5c3.2,20.5,17.5,27.1,32.7,24.9c10.9-1.5,17.1-4.3,22.5-7.6l4.1,10.5c-5,3.2-13.7,7.2-27,9.1
		c-25.7,3.6-43.4-11.1-46.9-36.3c-3.5-25.2,8.5-47.1,32.8-50.5c27.2-3.8,37.8,19.1,40,34.4c0.4,3.1,0.4,5.6,0.5,7.1L587.4,124.5z
		 M630.4,107.4c-1.2-9.7-7.4-24.1-24.5-21.7c-15.3,2.2-20.1,17.2-19.8,27.9L630.4,107.4z"/>
</g>
<polygon class="st0" points="228.3,338.5 191.4,385.3 132.4,376.8 110.3,321.5 147.1,274.7 206.1,283.2 "/>
<polygon class="st0" points="390.2,315.4 344.8,324.9 313.9,290.4 328.4,246.4 373.7,236.8 404.6,271.3 "/>
<polygon class="st0" points="606.9,389.6 538.8,418.5 479.8,374 488.9,300.6 556.9,271.8 615.9,316.3 "/>
</svg>
